<?xml version="1.0" standalone="no"?>
<!DOCTYPE svg PUBLIC "-//W3C//DTD SVG 20010904//EN"
 "http://www.w3.org/TR/2001/REC-SVG-20010904/DTD/svg10.dtd">
<svg version="1.0" xmlns="http://www.w3.org/2000/svg"
 width="1280.000000pt" height="866.000000pt" viewBox="0 0 1280.000000 866.000000"
 preserveAspectRatio="xMidYMid meet">
<metadata>
Created by potrace 1.15, written by Peter Selinger 2001-2017
</metadata>
<g transform="translate(0.000000,866.000000) scale(0.100000,-0.100000)"
fill="#000000" stroke="none">
<path d="M6210 8649 c-333 -4 -1023 -12 -1535 -18 -511 -6 -1346 -16 -1855
-22 -509 -6 -1181 -14 -1495 -17 l-570 -7 -7 -560 c-6 -539 -21 -2282 -35
-4131 l-6 -882 427 -7 426 -7 93 88 c318 306 646 524 905 600 373 110 902 -67
1602 -536 l145 -97 650 -12 c358 -7 844 -16 1080 -21 237 -5 617 -12 845 -16
l415 -6 32 33 32 34 -6 2786 -6 2787 -55 11 c-59 12 -136 12 -1082 0z"/>
<path d="M10165 6533 c-55 -1 -433 -7 -840 -12 -407 -6 -859 -14 -1004 -17
l-264 -7 7 -476 c15 -1094 26 -1947 36 -2771 5 -481 12 -958 15 -1059 l4 -183
-1930 3 -1930 4 -49 97 c-108 215 -250 387 -438 528 -170 127 -373 217 -602
267 -122 26 -429 26 -555 -1 -388 -81 -722 -306 -941 -632 l-50 -75 -180 -3
c-98 -2 -464 -4 -811 -5 l-633 -1 0 -256 0 -257 725 8 726 7 -8 -29 c-15 -53
-8 -352 10 -450 56 -305 189 -558 411 -779 269 -270 593 -413 971 -431 796
-37 1484 589 1522 1385 l6 124 2081 -4 2081 -3 53 29 c30 17 63 44 74 60 12
17 29 38 38 46 10 9 30 74 49 160 129 564 339 941 633 1136 410 272 1051 380
1599 269 190 -38 370 -110 498 -198 74 -51 215 -193 269 -270 166 -240 298
-641 383 -1167 12 -74 25 -138 28 -142 5 -6 641 40 648 46 3 3 -73 1519 -81
1611 -5 58 -40 122 -958 1755 l-954 1695 -269 0 c-149 1 -315 0 -370 -2z
m-386 -863 c536 -38 977 -72 981 -77 4 -4 57 -100 117 -213 61 -113 269 -497
463 -855 620 -1142 660 -1217 660 -1239 0 -28 -18 -46 -46 -46 -12 0 -89 35
-171 79 -81 43 -791 413 -1577 822 -785 408 -1434 748 -1440 755 -7 7 -17 81
-24 185 -28 377 -42 566 -47 617 l-5 53 57 -6 c32 -3 496 -37 1032 -75z"/>
<path d="M10305 2983 c-173 -22 -349 -75 -492 -146 -446 -225 -737 -635 -804
-1135 -16 -116 -6 -360 19 -477 60 -278 199 -532 402 -735 206 -206 445 -336
741 -402 89 -20 131 -23 294 -22 159 0 207 4 295 23 524 113 945 496 1099 997
53 174 65 254 65 434 0 186 -15 290 -65 447 -195 614 -768 1030 -1407 1022
-64 -1 -130 -4 -147 -6z"/>
</g>
</svg>
